<?xml version="1.0" encoding="UTF-8"?>
<svg width="752pt" height="752pt" version="1.1" viewBox="0 0 752 752" xmlns="http://www.w3.org/2000/svg">
 <g>
  <path d="m357.06 400.15c-5.2109 12.312-15.156 16.102-27.941 18.469 8.5234-12.312 10.891-24.625 7.1055-36.938-2.8398 3.3164-5.6836 7.1055-9.4727 9.4727s-8.0508 3.7891-12.785 4.7344c6.6289-10.418 6.6289-21.785 4.2617-32.676-2.3672-10.891-7.1055-20.836-10.891-30.781 14.68 5.6836 29.363 4.2617 40.727-8.5234 0 7.5781-0.94531 15.156 0 22.258 2.3672 18.469 10.891 34.57 22.258 48.777 8.9961 11.367 18.469 21.785 26.992 33.625 18.941 26.992 30.309 57.777 36.465 90.453 0.94531 4.7344 0.94531 9.4727 0.94531 14.207 0 11.84-5.2109 20.363-16.102 25.574-11.367 5.6836-23.68 7.1055-37.887 6.6289 1.8945-0.94531 2.8398-1.8945 3.7891-1.8945 14.68-6.6289 21.312-17.996 23.207-33.625 2.8398-30.781-4.2617-59.672-19.418-86.191-8.0508-14.207-29.832-42.148-31.254-43.57zm69.141 136.87c-1.8945-2.3672-3.3164-4.2617-4.7344-6.1562-2.3672 1.4219-4.2617 3.3164-6.6289 4.7344 1.4219 1.8945 3.3164 3.7891 5.2109 5.6836 1.8906-1.4219 3.7852-2.8398 6.1523-4.2617zm-85.242-198.43c-2.3672 0.47266-5.2109 0.94531-7.5781 1.4219 0.94531 2.3672 1.4219 5.2109 2.3672 7.5781 2.3672-0.47266 5.2109-1.4219 7.5781-1.8945-0.94531-2.3711-1.4219-4.7383-2.3672-7.1055zm79.562 173.33c-1.8945 2.8398-3.7891 4.2617-3.7891 5.6836 0 1.4219 2.3672 3.3164 3.7891 3.3164s3.7891-1.8945 3.7891-3.3164c0-0.94531-1.8945-2.8398-3.7891-5.6836zm-3.3164-12.785c-0.94531 1.8945-2.3672 2.8398-2.3672 4.2617 0 0.94531 1.8945 2.3672 2.3672 2.3672 0.94531-0.47266 2.8398-1.4219 2.8398-2.3672 0-1.4219-1.418-2.3672-2.8398-4.2617z"/>
  <path d="m362.27 492.03c1.8945-2.8398 3.7891-5.2109 5.6836-8.0508 3.3164-5.6836 1.4219-10.418-3.3164-12.312-4.7344-1.8945-8.5234 0.47266-10.891 6.1562-0.94531 2.8398 0 6.6289-2.3672 8.5234-0.47266 0.47266-3.3164-1.4219-4.2617-4.7344-1.8945-5.2109-3.3164-9.9453-3.3164-15.156 0-13.262 1.4219-26.52 1.8945-39.309 0-3.3164 8.9961-10.418 11.367-12.312 0.94531 0.94531 19.891 29.836 28.887 43.098 2.3672 3.3164 1.8945 7.1055 0.47266 10.418-3.3164 8.5234-8.0508 15.629-15.156 21.312-2.3633 2.3672-5.207 3.7891-8.9961 2.3672zm4.2656-28.887c2.8398-2.3672 6.1562-5.2109 8.9961-7.5781-2.3672-2.8398-5.2109-5.6836-7.5781-8.5234-2.8398 2.3672-6.1562 5.2109-8.5234 7.5781 1.8945 2.3672 4.7344 5.6797 7.1055 8.5234z"/>
  <path d="m395.89 484.93c3.3164 14.68 5.2109 29.363 2.3672 44.043-4.7344 24.152-23.68 36.938-47.832 33.152-9.9453-1.4219-18.941-4.7344-27.469-11.84 20.363 2.3672 36.938-3.7891 51.148-17.051 13.734-13.262 21.312-29.363 21.785-48.305zm-23.203 66.301c-2.3672-1.8945-4.2617-4.2617-5.6836-3.7891-1.4219 0-3.3164 2.3672-3.7891 3.7891 0 0.94531 2.3672 3.3164 3.3164 3.3164 1.8945 0 3.7891-1.8945 6.1562-3.3164zm7.1016-2.8398c1.4219-2.3672 2.8398-3.7891 2.8398-5.2109 0-0.94531-1.8945-1.8945-3.3164-2.8398-0.94531 1.4219-2.8398 2.3672-2.8398 3.7891 0.003906 0.94531 1.4219 1.8906 3.3164 4.2617z"/>
  <path d="m337.64 540.81c-3.3164 0.47266-7.1055 0-9.9453-0.47266-4.2617-0.94531-7.1055-5.2109-5.6836-9.9453 0.47266-0.94531 1.8945-2.3672 2.8398-2.8398 28.887-4.7344 64.406-46.41 64.879-46.883-4.7305 28.41-27.465 55.879-52.09 60.141z"/>
  <path d="m361.79 248.61c13.262 11.84 27.469 20.836 44.516 25.574-16.574 4.2617-30.781 11.367-43.098 24.152 3.793-17.051 3.3203-33.152-1.418-49.727z"/>
  <path d="m309.7 215.93c13.734-16.102 31.258-25.574 52.566-29.363-12.785 9.4727-17.051 21.785-14.207 38.359-11.84-10.414-23.676-14.203-38.359-8.9961zm26.996-11.363c-0.47266 1.8945-0.94531 4.2617-1.8945 6.1562 1.8945 0.47266 4.2617 0.94531 6.1562 1.4219 0.47266-2.3672 1.4219-4.2617 1.8945-6.6289-1.8945-0.003906-4.2617-0.47656-6.1562-0.94922z"/>
  <path d="m334.8 468.35c0.94531 18.469 4.2617 35.992-11.367 51.148 4.2617-17.527 7.5781-34.102 11.367-51.148z"/>
  <path d="m448.46 225.4c-9.9453-21.785-39.309-39.781-63.934-38.359-22.73 1.4219-32.203 17.996-21.785 38.359 0 0.47266 0.47266 0.94531 0.47266 0.94531 13.734 21.785 34.098 32.676 57.777 35.047 3.7891-0.47266 6.1562-0.47266 8.5234-0.94531 19.418-3.3164 26.996-17.523 18.945-35.047zm-19.418 17.996c-5.2109 2.3672-11.367 1.4219-17.051 0.47266-12.312-2.3672-23.207-8.5234-33.152-23.207-8.9961-12.785-3.7891-20.836 14.207-19.891 14.68 0.94531 31.258 10.891 38.359 28.414 2.3711 6.1602 2.3711 11.844-2.3633 14.211z"/>
  <path d="m459.35 242.45c-1.4219 16.102-10.891 26.52-26.52 31.73 15.156 4.7344 24.625 13.734 27.469 29.363 6.6289-20.84 6.6289-40.73-0.94922-61.094zm-5.2109 36.938c-1.4219-1.4219-3.3164-3.3164-4.7344-5.2109 1.4219-1.4219 2.8398-2.8398 4.7344-4.2617 1.4219 1.4219 3.3164 2.8398 4.7344 4.7344-1.418 1.4219-3.3125 2.8438-4.7344 4.7383z"/>
  <path d="m348.54 263.76c-1.4219-12.312-5.6836-26.047-15.156-34.57-9.4727-8.5234-21.785-8.9961-30.781 0-4.2617 4.2617-7.5781 8.9961-9.9453 14.207-6.1562 13.262-7.1055 26.992-5.2109 41.203 1.8945 11.367 5.2109 21.785 13.262 29.836 10.418 10.891 24.152 10.891 34.098-0.47266 2.8398-2.8398 4.7344-6.6289 6.6289-9.9453 5.2109-9.9492 8.5234-30.312 7.1055-40.258zm-31.73 39.781c-9.9453 0-17.523-14.68-17.523-32.676 0-17.996 8.0508-32.676 17.523-32.676 9.4727 0 17.523 14.68 17.523 32.676 0 17.996-7.5781 32.676-17.523 32.676z"/>
  <path d="m432.36 288.39c-4.2617-0.94531-8.5234-1.4219-12.312-0.94531-25.102 2.8398-44.043 15.156-55.41 37.887-11.84 24.152-1.4219 51.621 22.258 62.512 1.4219 0.94531 3.3164 0.94531 4.7344 1.4219l0.94531-0.94531c-0.47266-1.4219-3.3164-11.84-2.8398-14.68 0.94531-4.2617 5.2109-6.1562 9.4727-5.2109 4.2617 0.47266 6.1562 3.3164 6.1562 7.1055 0 2.8398-0.47266 5.2109 0 8.0508 0 1.4219 0.94531 3.3164 1.8945 3.7891 0.94531 0.47266 2.8398 0 3.7891-0.94531 0.94531-0.47266 1.8945-1.8945 2.8398-2.8398 6.6289-8.5234 13.262-16.574 18.941-25.574 8.0508-11.84 15.629-24.152 18.941-38.359 2.8477-16.113-3.7852-27.48-19.41-31.266zm-12.789 53.988c-16.102 8.0508-33.625 7.1055-38.359-2.8398-5.2109-9.9453 3.7891-24.625 19.891-32.676 16.102-8.0508 33.625-7.1055 38.359 2.8398 4.7344 9.4688-3.7891 24.148-19.891 32.676z"/>
 </g>
</svg>
